#Comment line ignore any data following # character 
#Hierarchical Translation and Rotation (.htr) file 
[Header]	
#Header keywords are followed by a single value 
FileType HTR		#Single word string
DataType HTRS		#Translation followed by rotation and scale data
FileVersion 1		#integer
NumSegments 25		#integer
NumFrames 4		#integer
DataFrameRate 30		#integer, data frame rate in this file
EulerRotationOrder ZYX
CalibrationUnits mm
RotationUnits Degrees
GlobalAxisofGravity Y
BoneLengthAxis Y
ScaleFactor 1.00
[SegmentNames&Hierarchy]
#CHILD	PARENT
BN_Tick_Root GLOBAL
BN_Torso BN_Tick_Root
BN_L_Leg_Front01 BN_Torso
BN_L_Leg_Rear01 BN_Torso
BN_MetalTop BN_Torso
BN_Neck BN_Torso
BN_R_Leg_Front01 BN_Torso
BN_R_Leg_Rear01 BN_Torso
BN_Sack BN_Torso
BN_L_Leg_Front02 BN_L_Leg_Front01
BN_L_Leg_Front03 BN_L_Leg_Front02
BN_L_Leg_Rear02 BN_L_Leg_Rear01
BN_L_Leg_Rear03 BN_L_Leg_Rear02
BN_Head BN_Neck
BN_Needle BN_Head
BN_R_Leg_Front02 BN_R_Leg_Front01
BN_R_Leg_Front03 BN_R_Leg_Front02
BN_R_Leg_Rear02 BN_R_Leg_Rear01
BN_R_Leg_Rear03 BN_R_Leg_Rear02
BN_SackDef01 BN_Sack
BN_SackDef02 BN_Sack
BN_SackDef03 BN_Sack
BN_SackDef04 BN_Sack
BN_SackDef05 BN_Sack
BN_SackDef06 BN_Sack
[BasePosition]
#SegmentName Tx, Ty, Tz, Rx, Ry, Rz, BoneLength
BN_Tick_Root 0.000000 0.000000 0.000000 -90.000000 0.000000 0.000000 10.000000 
BN_Torso 0.000000 0.000000 0.000000 0.000000 0.000000 0.000000 10.000000 
BN_L_Leg_Front01 0.000000 0.000000 0.000000 0.000000 0.000000 0.000000 10.000000 
BN_L_Leg_Rear01 0.000000 0.000000 0.000000 0.000000 0.000000 0.000000 10.000000 
BN_MetalTop 0.000000 0.000000 0.000000 0.000000 0.000000 0.000000 10.000000 
BN_Neck 0.000000 0.000000 0.000000 0.000000 0.000000 0.000000 10.000000 
BN_R_Leg_Front01 0.000000 0.000000 0.000000 0.000000 0.000000 0.000000 10.000000 
BN_R_Leg_Rear01 0.000000 0.000000 0.000000 0.000000 0.000000 0.000000 10.000000 
BN_Sack 0.000000 0.000000 0.000000 0.000000 0.000000 0.000000 10.000000 
BN_L_Leg_Front02 0.000000 0.000000 0.000000 0.000000 0.000000 0.000000 10.000000 
BN_L_Leg_Front03 0.000000 0.000000 0.000000 0.000000 0.000000 0.000000 10.000000 
BN_L_Leg_Rear02 0.000000 0.000000 0.000000 0.000000 0.000000 0.000000 10.000000 
BN_L_Leg_Rear03 0.000000 0.000000 0.000000 0.000000 0.000000 0.000000 10.000000 
BN_Head 0.000000 0.000000 0.000000 0.000000 0.000000 0.000000 10.000000 
BN_Needle 0.000000 0.000000 0.000000 0.000000 0.000000 0.000000 10.000000 
BN_R_Leg_Front02 0.000000 0.000000 0.000000 0.000000 0.000000 0.000000 10.000000 
BN_R_Leg_Front03 0.000000 0.000000 0.000000 0.000000 0.000000 0.000000 10.000000 
BN_R_Leg_Rear02 0.000000 0.000000 0.000000 0.000000 0.000000 0.000000 10.000000 
BN_R_Leg_Rear03 0.000000 0.000000 0.000000 0.000000 0.000000 0.000000 10.000000 
BN_SackDef01 0.000000 0.000000 0.000000 0.000000 0.000000 0.000000 10.000000 
BN_SackDef02 0.000000 0.000000 0.000000 0.000000 0.000000 0.000000 10.000000 
BN_SackDef03 0.000000 0.000000 0.000000 0.000000 0.000000 0.000000 10.000000 
BN_SackDef04 0.000000 0.000000 0.000000 0.000000 0.000000 0.000000 10.000000 
BN_SackDef05 0.000000 0.000000 0.000000 0.000000 0.000000 0.000000 10.000000 
BN_SackDef06 0.000000 0.000000 0.000000 0.000000 0.000000 0.000000 10.000000 
#Beginning of Data. Separated by tabs
#Fr	Tx	Ty	Tz	Rx	Ry	Rz	SF
[BN_Tick_Root]
63 -912.785950 1114.929565 1113.208374 0.000000 -0.000000 69.074097 1820.845703
64 -912.173279 1112.316040 1112.608032 0.000000 -0.000000 67.346054 1818.571777
65 -910.398682 1104.768921 1110.867432 0.000000 -0.000000 65.286179 1812.006104
66 -907.569763 1092.738159 1108.092407 0.000000 -0.000000 62.929981 1801.562744
[BN_Torso]
63 -235.040848 -379.553833 198.330292 56.098743 -5.450522 -18.951433 488.508148
64 -190.120850 -302.785095 195.364014 47.594425 -8.423601 -17.696461 407.420959
65 -142.071075 -224.572296 188.319183 39.036873 -10.624112 -15.031708 325.700806
66 -91.986000 -147.430038 179.960083 31.145735 -12.152452 -11.351132 250.165283
[BN_L_Leg_Front01]
63 -68.477791 10.734189 -26.804373 -70.969215 12.113949 109.490891 74.316254
64 -68.477791 10.734189 -26.804373 -70.394806 10.440432 108.168755 74.316254
65 -68.477791 10.734189 -26.804373 -70.754692 9.025983 106.064575 74.316254
66 -68.477791 10.734189 -26.804373 -71.626778 8.062613 103.482422 74.316254
[BN_L_Leg_Rear01]
63 -72.133743 -73.994843 -18.268616 96.560616 54.262295 -137.774506 104.939293
64 -72.133743 -73.994843 -18.268616 95.278625 53.953167 -138.798050 104.939293
65 -72.133743 -73.994843 -18.268616 94.402153 55.167843 -138.226425 104.939293
66 -72.133743 -73.994843 -18.268616 93.956261 57.013565 -137.069656 104.939293
[BN_MetalTop]
63 0.000008 13.737477 26.403606 89.999817 -33.239162 -89.998512 29.763546
64 0.000008 13.737477 26.403606 89.997169 -39.756767 -89.998444 29.763546
65 0.000008 13.737477 26.403606 90.005630 -44.520573 -90.003082 29.763546
66 0.000008 13.737477 26.403606 89.997620 -46.368782 -89.996376 29.763546
[BN_Neck]
63 0.000014 95.233284 10.002091 -89.999001 -61.169781 89.997803 95.757088
64 0.000014 95.233284 10.002091 -89.998894 -59.696613 89.997704 95.757088
65 0.000014 95.233284 10.002091 -89.998825 -58.221004 89.997620 95.757088
66 0.000014 95.233284 10.002091 -89.998718 -56.743370 89.997513 95.757088
[BN_R_Leg_Front01]
63 68.477768 10.734107 -26.804314 75.736488 45.016167 84.678162 74.316193
64 68.477768 10.734107 -26.804314 77.353714 38.628822 85.875603 74.316193
65 68.477768 10.734107 -26.804314 77.840515 31.885151 85.295090 74.316193
66 68.477768 10.734107 -26.804314 77.796249 25.407772 83.657097 74.316193
[BN_R_Leg_Rear01]
63 72.133751 -73.994873 -18.268644 -93.809486 70.369041 -90.877754 104.939331
64 72.133751 -73.994873 -18.268644 -95.611671 71.082176 -90.497719 104.939331
65 72.133751 -73.994873 -18.268644 -94.257385 71.977318 -85.698463 104.939331
66 72.133751 -73.994873 -18.268644 -90.294174 72.211403 -79.549721 104.939331
[BN_Sack]
63 -0.000000 -78.024918 33.657791 89.998497 -8.355204 -90.001602 84.974907
64 -0.000000 -78.024918 33.657791 89.999519 -13.606846 -90.002502 84.974907
65 -0.000000 -78.024918 33.657791 90.004288 -18.436426 -90.002861 84.974907
66 -0.000000 -78.024918 33.657791 89.997360 -22.304390 -89.998749 84.974907
[BN_L_Leg_Front02]
63 142.805023 -0.000015 -0.000104 0.418196 1.018709 -20.792484 142.805023
64 142.805023 -0.000015 -0.000104 0.400457 1.029095 -21.486816 142.805023
65 142.805023 -0.000015 -0.000104 0.368302 1.055245 -22.898283 142.805023
66 142.805023 -0.000015 -0.000104 0.327973 1.080545 -24.601845 142.805023
[BN_L_Leg_Front03]
63 124.143021 -0.000045 0.000007 0.352355 -0.430084 105.766754 124.143021
64 124.143021 -0.000045 0.000007 0.355539 -0.428067 107.032730 124.143021
65 124.143021 -0.000045 0.000007 0.355150 -0.423318 109.595215 124.143021
66 124.143021 -0.000045 0.000007 0.354554 -0.413575 112.695251 124.143021
[BN_L_Leg_Rear02]
63 139.939041 0.000075 -0.000022 0.018615 -0.243487 113.981689 139.939041
64 139.939041 0.000075 -0.000022 0.004370 -0.255659 118.466515 139.939041
65 139.939041 0.000075 -0.000022 -0.010783 -0.266680 122.951439 139.939041
66 139.939041 0.000075 -0.000022 -0.021962 -0.268570 125.864433 139.939041
[BN_L_Leg_Rear03]
63 142.839615 0.000179 -0.000060 0.000853 -0.002187 -132.613220 142.839615
64 142.839615 0.000179 -0.000060 0.000922 -0.002159 -136.250275 142.839615
65 142.839615 0.000179 -0.000060 0.000986 -0.002130 -139.688858 142.839615
66 142.839615 0.000179 -0.000060 0.001025 -0.002113 -141.750290 142.839615
[BN_Head]
63 57.062447 -0.000030 0.000000 0.001725 0.001605 4.125195 57.062447
64 57.062447 -0.000030 0.000000 0.001747 0.001584 5.598541 57.062447
65 57.062447 -0.000030 0.000000 0.001768 0.001563 7.074338 57.062447
66 57.062447 -0.000030 0.000000 0.001790 0.001541 8.552116 57.062447
[BN_Needle]
63 33.915195 69.677643 -0.000071 0.000003 0.000030 87.896805 77.493317
64 33.915195 69.677643 -0.000070 0.000003 0.000030 87.896805 77.493317
65 33.915195 69.677643 -0.000070 0.000003 0.000030 87.896805 77.493317
66 33.915195 69.677643 -0.000069 0.000003 0.000030 87.896805 77.493317
[BN_R_Leg_Front02]
63 142.804947 -0.000060 0.000060 9.057785 -18.714029 66.214523 142.804947
64 142.804947 -0.000060 0.000060 10.008919 -20.101643 56.744492 142.804947
65 142.804947 -0.000060 0.000060 11.301551 -21.763603 46.964630 142.804947
66 142.804947 -0.000060 0.000060 12.848729 -23.819721 37.278606 142.804947
[BN_R_Leg_Front03]
63 124.143005 -0.000060 -0.000156 -0.352672 -0.442073 -101.498451 124.143005
64 124.143005 -0.000060 -0.000156 -0.355111 -0.440117 -100.864571 124.143005
65 124.143005 -0.000060 -0.000156 -0.355122 -0.440210 -99.872993 124.143005
66 124.143005 -0.000060 -0.000156 -0.354388 -0.440958 -99.082298 124.143005
[BN_R_Leg_Rear02]
63 139.939011 -0.000149 0.000015 1.527220 -21.204107 -124.720596 139.939011
64 139.939011 -0.000149 0.000015 2.279217 -19.639297 -128.023621 139.939011
65 139.939011 -0.000149 0.000015 2.409128 -18.073851 -129.307343 139.939011
66 139.939011 -0.000149 0.000015 1.919592 -16.518869 -128.032028 139.939011
[BN_R_Leg_Rear03]
63 142.839417 0.000075 0.000119 0.002121 -0.001006 140.758270 142.839417
64 142.839417 0.000075 0.000119 0.002101 -0.001046 142.950943 142.839417
65 142.839417 0.000075 0.000119 0.002093 -0.001062 143.805359 142.839417
66 142.839417 0.000075 0.000119 0.002100 -0.001048 143.034515 142.839417
[BN_SackDef01]
63 249.782272 -3.760844 42.949425 -128.408218 -44.374973 -11.740845 253.475800
64 249.782272 -3.760844 42.949425 -128.408218 -44.374973 -11.740845 253.475800
65 249.782272 -3.760844 42.949425 -128.408218 -44.374973 -11.740845 253.475800
66 249.782272 -3.760844 42.949425 -128.408218 -44.374973 -11.740845 253.475800
[BN_SackDef02]
63 138.789795 -62.131748 45.674385 32.077126 -27.375721 -88.781525 158.773758
64 138.789795 -62.131748 45.674385 32.077126 -27.375721 -88.781525 158.773758
65 138.789795 -62.131748 45.674385 32.077126 -27.375721 -88.781525 158.773758
66 138.789795 -62.131748 45.674385 32.077126 -27.375721 -88.781525 158.773758
[BN_SackDef03]
63 249.782272 -3.760785 -42.949661 18.144459 44.375008 -11.740894 253.475845
64 249.782272 -3.760785 -42.949661 18.144459 44.375008 -11.740894 253.475845
65 249.782272 -3.760785 -42.949661 18.144459 44.375008 -11.740894 253.475845
66 249.782272 -3.760785 -42.949661 18.144459 44.375008 -11.740894 253.475845
[BN_SackDef04]
63 138.789780 -62.131645 -45.674473 146.059982 27.375723 -88.781555 158.773743
64 138.789780 -62.131645 -45.674473 146.059982 27.375723 -88.781555 158.773743
65 138.789780 -62.131645 -45.674473 146.059982 27.375723 -88.781555 158.773743
66 138.789780 -62.131645 -45.674473 146.059982 27.375723 -88.781555 158.773743
[BN_SackDef05]
63 118.790161 46.167137 -63.831196 0.155741 51.314110 90.605110 142.537460
64 118.790161 46.167137 -63.831196 0.155741 51.314110 90.605110 142.537460
65 118.790161 46.167137 -63.831196 0.155741 51.314110 90.605110 142.537460
66 118.790161 46.167137 -63.831196 0.155741 51.314110 90.605110 142.537460
[BN_SackDef06]
63 118.790207 46.167194 63.831219 152.058487 -51.314072 90.605019 142.537537
64 118.790207 46.167194 63.831219 152.058487 -51.314072 90.605019 142.537537
65 118.790207 46.167194 63.831219 152.058487 -51.314072 90.605019 142.537537
66 118.790207 46.167194 63.831219 152.058487 -51.314072 90.605019 142.537537
